<svg width="40" height="41" viewBox="0 0 40 41" fill="none" xmlns="http://www.w3.org/2000/svg">
<g id="Group 7">
<path id="Vector" d="M35.5556 0.462891H4.44444C2 0.462891 0 2.46289 0 4.90734V36.0184C0 38.4629 2 40.4629 4.44444 40.4629H35.5556C38 40.4629 40 38.4629 40 36.0184V4.90734C40 2.46289 38 0.462891 35.5556 0.462891ZM35.5556 36.0184H4.44444V4.90734H35.5556V36.0184ZM7.11111 10.9073H18.2222V14.2407H7.11111V10.9073ZM22.2222 28.9073H33.3333V32.2407H22.2222V28.9073ZM22.2222 23.1296H33.3333V26.4629H22.2222V23.1296ZM11.1111 33.7962H14.4444V29.3518H18.8889V26.0184H14.4444V21.574H11.1111V26.0184H6.66667V29.3518H11.1111V33.7962ZM24.6667 18.0184L27.7778 14.9073L30.8889 18.0184L33.3333 15.7962L30.2222 12.6851L33.3333 9.574L30.8889 7.12956L27.7778 10.2407L24.6667 7.12956L22.2222 9.574L25.3333 12.6851L22.2222 15.7962L24.6667 18.0184Z" fill="black"/>
</g>
</svg>
