<svg width="64" height="64" fill="none" xmlns="http://www.w3.org/2000/svg"><path d="M56.889 0H7.11C3.2 0 0 3.2 0 7.111V56.89C0 60.8 3.2 64 7.111 64H56.89C60.8 64 64 60.8 64 56.889V7.11C64 3.2 60.8 0 56.889 0zm0 56.889H7.11V7.11h49.78v49.78zM11.378 16.71h17.778v5.333H11.378V16.71zm24.178 28.8h17.777v5.333H35.556V45.51zm0-9.244h17.777V41.6H35.556v-5.333zM17.778 53.333h5.333v-7.11h7.111v-5.334h-7.11v-7.111h-5.334v7.11h-7.111v5.334h7.11v7.111zM39.467 28.09l4.977-4.978 4.978 4.978 3.911-3.556-4.977-4.977 4.977-4.978-3.91-3.911-4.979 4.977-4.977-4.977-3.911 3.91 4.977 4.979-4.977 4.977 3.91 3.556z" fill="#000"/></svg>