<svg width="104" height="94" fill="none" xmlns="http://www.w3.org/2000/svg"><path fill-rule="evenodd" clip-rule="evenodd" d="M80.555 35.059c7.61.044 15.196.177 22.759.4l-8.917 16.77c-.492-.194-.58-.483-.266-.866-.291-.08-.313-.236-.067-.466a12.01 12.01 0 000-2.529.584.584 0 00-.466-.133v.4H93.2c.032-.41-.012-.81-.133-1.198-.466-.064-.82-.353-1.065-.865l.532-.134a17.104 17.104 0 00-2.129-.066c.032.466-.079.51-.333.133a.966.966 0 01-.332.266 2.64 2.64 0 00-2.13-.266l-.266-.133a2.56 2.56 0 00-.4-.998c.256-.165.3-.365.134-.6-.148.146-.281.146-.4 0 .192-.343.147-.654-.133-.93a.646.646 0 00-.133.532.646.646 0 00-.532.133 10.215 10.215 0 00-.533 1.996h-.532c.089 1.037-.155 1.969-.732 2.795l-.133.932a1.617 1.617 0 00-.6.466c.15.033.284.1.4.2a3.46 3.46 0 01-.665.93c-.132-.515-.287-.515-.466 0-.27-.812-.07-1.5.599-2.062-.294-.127-.272-.283.066-.466.045-.355.09-.71.133-1.065a21.481 21.481 0 001.398-4.658 1.488 1.488 0 00-.599.133 1.234 1.234 0 01-.333-.266c-.654.095-1.297.228-1.93.4l-.133-.134a2.49 2.49 0 00-.865.799 1.2 1.2 0 00-.4-.533 8.542 8.542 0 01-.864 1.997c-.228-.428-.427-.45-.6-.067a.657.657 0 01-.398.067 16.456 16.456 0 00-.799 1.597c.143.36.276.715.4 1.065-.4-.045-.622-.267-.666-.666-.412-.011-.457.055-.133.2-.343.304-.742.46-1.198.466a.536.536 0 00.333.532 2.64 2.64 0 00.465-.532c.175.241.375.463.6.665.307-.196.595-.418.864-.665a3.42 3.42 0 00.533 1.53c-.192.277-.103.388.266.333.097.28.097.546 0 .799a.747.747 0 00-.466-.4c-.247.165-.49.165-.732 0-.114.324-.336.501-.665.533v.399a.646.646 0 00-.533.133.93.93 0 01-.399.532l-.133-.2c.162-.273.296-.561.4-.864l-.134-.4a.646.646 0 00-.133.533.64.64 0 01-.599-.4 7.726 7.726 0 01-.333-1.264 2.497 2.497 0 00-.665-.732 1.37 1.37 0 00-.4.133 5.723 5.723 0 00-.199 1.198c-.393-.225-.415-.47-.067-.732-.397-.008-.707.17-.931.532.158.252.291.519.399.799.684.025.772.203.266.532.102.316.258.604.466.865.308-.204.64-.27.998-.2-.382.12-.427.23-.133.334a.528.528 0 00.466-.267 40.241 40.241 0 000 1.73c.183.228.405.406.666.533l.133-.4c.48 1.22.88 2.463 1.197 3.727.632.925 1.497 1.413 2.596 1.464.315-.018.625-.062.931-.133.225.035.425.124.6.266.395-.199.35-.376-.134-.532a.333.333 0 010-.4l.133.134.666-.799c.016.193-.007.393-.067.6a.61.61 0 00.333.465 10.55 10.55 0 011.198-3.327 4.68 4.68 0 00.599-.932c.2-.165.356-.12.466.133l.399-1.597a2.478 2.478 0 00.665-1.73c.43-.326.63-.725.6-1.198.19.247.413.47.665.665-.354.224-.332.401.066.533.399-.132.421-.31.067-.533.332-.138.332-.25 0-.332a4.837 4.837 0 011.73-.333v.931c.625-.02 1.157.18 1.597.6a.536.536 0 01-.532.332c-.048.302.041.546.266.732-.225.187-.314.43-.266.732a5.53 5.53 0 00-1.065.133c.216 1.313.903 2.333 2.063 3.061.174-.086.285.002.333.267a128.068 128.068 0 00-2.529 4.924c-.187.063-.276.196-.266.4-.444.69-.8 1.421-1.065 2.196a616.225 616.225 0 003.727 9.45.525.525 0 01-.133.266c-.415.078-.77.255-1.065.532a416.245 416.245 0 014.459 10.98c.074.07.163.114.266.133 1.154-.51 2.33-.954 3.527-1.33.309.881.575 1.769.798 2.661a108.52 108.52 0 00-4.79 1.797c-1.016.258-1.66-.119-1.93-1.131a937.663 937.663 0 00-4.66-11.713.762.762 0 00-.465-.399 5.826 5.826 0 01-.998.4l-3.261-7.853a72.29 72.29 0 00-5.856-1.797.67.67 0 01-.4-.599 2826.916 2826.916 0 00-9.45-23.292c-.924-2.462-1.9-4.902-2.928-7.32a55.7 55.7 0 015.457-.4 74.439 74.439 0 00-1.863-4.857.566.566 0 00-.532 0 87.224 87.224 0 01-3.062 1.264.762.762 0 01-.399-.133 368.42 368.42 0 01-.732-1.863.657.657 0 00-.333-.133c-1.049.38-2.091.78-3.127 1.198-.067-.045-.133-.09-.2-.133a200.465 200.465 0 01-4.259-10.515 24.908 24.908 0 002.263-.799.77.77 0 01.399.133c1.02 2.57 2.04 5.142 3.061 7.72.424.022.78-.111 1.065-.4-1.5-3.632-2.986-7.27-4.459-10.913-.314-1.326.152-2.236 1.398-2.729 2.1-.806 4.185-1.649 6.255-2.528 1.132-.133 1.997.288 2.596 1.264a2635.08 2635.08 0 006.322 15.772 35.797 35.797 0 01-3.594 1.53l-.133.2c.297.514.474 1.068.532 1.664a34.697 34.697 0 003.195-1.198 166.396 166.396 0 001.863 4.192 15.85 15.85 0 002.662-.931.565.565 0 01.532 0c.301.74.612 1.472.932 2.196z" fill="#020202"/><path fill-rule="evenodd" clip-rule="evenodd" d="M57.93 19.09c.192-.184.325-.14.399.133a.761.761 0 00-.4-.133z" fill="#727272"/><path fill-rule="evenodd" clip-rule="evenodd" d="M64.316 31.333a.762.762 0 00.4.133c-.193.184-.326.14-.4-.133z" fill="#707070"/><path fill-rule="evenodd" clip-rule="evenodd" d="M70.174 35.059a55.668 55.668 0 00-5.457.399c-.12-.094-.165-.228-.133-.4h5.59z" fill="#D3D3D3"/><path fill-rule="evenodd" clip-rule="evenodd" d="M80.555 35.059h22.892c.032.171-.013.305-.133.399a969.324 969.324 0 00-22.76-.4z" fill="#D4D4D4"/><path fill-rule="evenodd" clip-rule="evenodd" d="M67.243 43.443a2293 2293 0 009.317 22.892c3.526 8.897 7.076 17.77 10.647 26.62a7.497 7.497 0 01-2.795.265 332.808 332.808 0 01-3.327-8.119l-19.432-.266a5.563 5.563 0 00-1.065-2.462 86.365 86.365 0 004.792-.2c2.85-4.858 5.668-9.738 8.451-14.64a65.186 65.186 0 00-2.462-6.389c-1.7-4.39-3.474-8.738-5.324-13.043a15.213 15.213 0 00-.799-2.196 638.654 638.654 0 00-13.043-.067v-2.662c4.97-.022 9.938 0 14.907.067a.3.3 0 01.133.2z" fill="#040404"/><path fill-rule="evenodd" clip-rule="evenodd" d="M94.396 52.229c-.304.564-.57 1.14-.798 1.73a19.205 19.205 0 00-1.464 2.662l-.4.532c-.047-.264-.158-.353-.332-.266-1.16-.728-1.848-1.749-2.063-3.061a5.53 5.53 0 011.064-.133c-.047-.302.041-.546.267-.732-.226-.187-.314-.43-.267-.732a.536.536 0 00.533-.333c-.44-.42-.972-.62-1.597-.599v-.932a4.838 4.838 0 00-1.73.333c.331.083.331.194 0 .333.354.223.331.4-.067.532-.399-.131-.42-.309-.067-.532a3.736 3.736 0 01-.665-.666c.03.473-.17.872-.6 1.198a2.47 2.47 0 01-.665 1.73l-.399 1.598c-.11-.254-.265-.298-.466-.133a4.686 4.686 0 01-.599.931 10.55 10.55 0 00-1.198 3.328.61.61 0 01-.332-.466c.06-.207.082-.406.066-.6l-.665.8a83.512 83.512 0 01-.133-.134.333.333 0 000 .4c.484.155.528.333.133.532a1.225 1.225 0 00-.6-.266c-.306.07-.616.115-.93.133-1.1-.051-1.965-.54-2.596-1.464a30.35 30.35 0 00-1.198-3.727l-.133.4a1.931 1.931 0 01-.666-.533 40.246 40.246 0 010-1.73.528.528 0 01-.465.266c-.294-.103-.25-.214.133-.333a1.284 1.284 0 00-.998.2 2.728 2.728 0 01-.466-.865c.506-.33.417-.507-.267-.533a4.641 4.641 0 00-.399-.798c.224-.363.535-.54.932-.533-.349.263-.327.507.066.732a5.65 5.65 0 01.2-1.197c.126-.065.26-.11.4-.134.265.195.487.439.665.733.075.432.186.854.333 1.264a.64.64 0 00.599.4.646.646 0 01.133-.533l.133.4a4.63 4.63 0 01-.4.864c.045.067.09.133.133.2a.929.929 0 00.4-.532.646.646 0 01.532-.134v-.399c.33-.031.551-.209.666-.532.24.164.485.164.732 0 .21.065.366.198.465.399.098-.253.098-.52 0-.799-.369.055-.458-.056-.266-.332a3.42 3.42 0 01-.532-1.53c-.27.246-.558.468-.865.664a4.234 4.234 0 01-.6-.665c-.13.197-.285.375-.465.532a.536.536 0 01-.333-.532 1.786 1.786 0 001.198-.466c-.323-.144-.28-.211.133-.2.045.4.266.622.666.666a30.23 30.23 0 00-.4-1.065 16.4 16.4 0 01.799-1.597.66.66 0 00.4-.066c.171-.383.37-.361.598.066.387-.66.676-1.325.865-1.996a1.2 1.2 0 01.4.532c.225-.336.513-.602.865-.798l.133.133a16.68 16.68 0 011.93-.4c.095.108.206.197.332.267a1.49 1.49 0 01.6-.134 21.475 21.475 0 01-1.398 4.659l-.133 1.065c-.339.183-.36.338-.067.465-.67.563-.869 1.25-.599 2.063.18-.515.335-.515.466 0 .274-.273.495-.584.666-.931a.904.904 0 00-.4-.2c.164-.203.364-.359.6-.466l.132-.931c.577-.827.821-1.758.732-2.796h.533c.11-.683.287-1.349.532-1.996a.646.646 0 01.533-.133.646.646 0 01.133-.532c.28.277.324.587.133.931.118.145.251.145.399 0 .167.234.123.434-.133.6.2.292.332.625.4.997.088.045.177.09.265.133a2.64 2.64 0 012.13.267.965.965 0 00.333-.267c.254.377.365.333.332-.133.712-.022 1.421 0 2.13.067l-.532.133c.244.513.599.801 1.064.865.121.389.165.788.133 1.198h.4v-.4a.584.584 0 01.466.134 12.05 12.05 0 010 2.529c-.247.23-.225.385.066.465-.314.384-.225.672.266.866z" fill="#0A0A0A"/><path fill-rule="evenodd" clip-rule="evenodd" d="M62.055 48.237a9.399 9.399 0 003.061.267c.128.194.283.372.466.532.322.788.588 1.586.799 2.396.407.541.762 1.118 1.064 1.73.32.8.652 1.598.999 2.396-.045.088-.09.177-.133.266a10.8 10.8 0 001.13 2.262c.392.974.769 1.95 1.132 2.928a97.533 97.533 0 00-6.388 2.53 45.784 45.784 0 00-1.864-4.26 7.524 7.524 0 00-2.462 1.997 2.052 2.052 0 00-.333.931 3.448 3.448 0 01-1.33-.133 6.057 6.057 0 012.129-2.994 7.574 7.574 0 001.597-1.065 209.555 209.555 0 01-3.194-8.053v-.399c.25.036.427-.052.532-.266a26.53 26.53 0 012.795-1.065z" fill="#040404"/><path fill-rule="evenodd" clip-rule="evenodd" d="M62.057 48.236c.008-.073.052-.117.133-.133.973.212 1.949.346 2.928.399a9.394 9.394 0 01-3.061-.266z" fill="#9E9E9E"/><path fill-rule="evenodd" clip-rule="evenodd" d="M59.26 49.302c-.105.213-.283.302-.533.266v.4a.616.616 0 01-.133-.533c.228-.017.45-.062.665-.133z" fill="#4B4B4B"/><path fill-rule="evenodd" clip-rule="evenodd" d="M93.597 53.96a3.182 3.182 0 01-.333 1.198 6.323 6.323 0 01-1.131 1.464c.423-.935.91-1.823 1.464-2.662z" fill="#ABABAB"/><path fill-rule="evenodd" clip-rule="evenodd" d="M66.049 48.1a385.593 385.593 0 015.324 13.044 2.53 2.53 0 01-.799-.133 119.68 119.68 0 00-1.131-2.928 10.8 10.8 0 01-1.132-2.263l.134-.266a83.615 83.615 0 01-.999-2.396 10.874 10.874 0 00-1.064-1.73 18.94 18.94 0 00-.799-2.396 2.603 2.603 0 01-.466-.532c.226.021.448 0 .666-.067.167-.055.256-.166.266-.332z" fill="#EBEBEB"/><path fill-rule="evenodd" clip-rule="evenodd" d="M67.645 42.78a2833.3 2833.3 0 019.45 23.291c-.262-.135-.44-.046-.532.266a2288.111 2288.111 0 01-9.317-22.892c.254-.132.387-.353.4-.666z" fill="#E9E9E9"/><path fill-rule="evenodd" clip-rule="evenodd" d="M54.602 61.544a.94.94 0 01.333.266c.066.53.088 1.063.066 1.597.142.125.32.17.533.133v1.331a.622.622 0 00-.533.133c.022.535 0 1.067-.066 1.598a.94.94 0 01-.333.266h-1.996v-5.324h1.996z" fill="#070707"/><path fill-rule="evenodd" clip-rule="evenodd" d="M54.6 61.547h-1.996v5.324H54.6a8.602 8.602 0 01-2.13.133v-5.59a8.597 8.597 0 012.13.133z" fill="#616161"/><path fill-rule="evenodd" clip-rule="evenodd" d="M68.843 61.946c2.243.045 2.975 1.11 2.196 3.195-.87.748-1.825.86-2.862.332-1.041-1.431-.82-2.607.666-3.527z" fill="#080808"/><path fill-rule="evenodd" clip-rule="evenodd" d="M89.204 62.08c.01.203-.079.336-.266.4-.01-.204.08-.337.266-.4z" fill="#6D6D6D"/><path fill-rule="evenodd" clip-rule="evenodd" d="M56.068 62.477h6.92a73.57 73.57 0 00.134 6.255 11.3 11.3 0 011.73.067.3.3 0 01.133.2c.043 3.292-.001 6.575-.133 9.848-3.714.044-7.419 0-11.114-.133a182.096 182.096 0 010-9.849 8.353 8.353 0 012.063-.133l.267-6.255z" fill="#000"/><path fill-rule="evenodd" clip-rule="evenodd" d="M56.065 62.476v-.133h7.053v6.388a73.611 73.611 0 01-.133-6.255h-6.92z" fill="#696969"/><path fill-rule="evenodd" clip-rule="evenodd" d="M55.004 63.408h.665v1.597h-.665c.142-.124.32-.168.532-.133v-1.33a.617.617 0 01-.532-.134z" fill="#474747"/><path fill-rule="evenodd" clip-rule="evenodd" d="M56.066 62.343v.133L55.8 68.73a38.498 38.498 0 01.266-6.388z" fill="#B4B4B4"/><path fill-rule="evenodd" clip-rule="evenodd" d="M64.985 68.997a90.71 90.71 0 01.133 4.925c0 1.688-.09 3.33-.266 4.924.131-3.273.176-6.556.133-9.849z" fill="#929292"/><path fill-rule="evenodd" clip-rule="evenodd" d="M79.758 81.91a56.163 56.163 0 01-5.524.266c-1.863 0-3.705-.045-5.523-.133a420.615 420.615 0 016.522-11.314 299.742 299.742 0 014.525 11.18z" fill="#FBFBFB"/><path fill-rule="evenodd" clip-rule="evenodd" d="M53.137 79.647c4.337-.248 7.02 1.704 8.052 5.856.139 4.209-1.836 6.804-5.923 7.786-4.148.178-6.699-1.752-7.653-5.79-.255-4.105 1.586-6.722 5.524-7.852z" fill="#060606"/><path fill-rule="evenodd" clip-rule="evenodd" d="M79.756 81.907c.12.095.165.228.133.4-3.772.044-7.543 0-11.313-.134.017-.08.061-.125.133-.133 1.819.09 3.66.133 5.524.133 1.887 0 3.729-.088 5.523-.266z" fill="#C7C7C7"/><path fill-rule="evenodd" clip-rule="evenodd" d="M53.267 82.442c1.7-.24 3.141.248 4.326 1.464 1.374 2.212 1.085 4.186-.865 5.923-2.12 1.207-4.005.918-5.657-.865-1.507-2.955-.775-5.13 2.196-6.522z" fill="#F8F8F8"/><path fill-rule="evenodd" clip-rule="evenodd" d="M61.656 84.835l19.432.266c-6.523.088-13 0-19.432-.266z" fill="#404040"/><path fill-rule="evenodd" clip-rule="evenodd" d="M53.94 85.105c1.335-.062 1.89.559 1.663 1.863-.389.736-.988.98-1.797.732-.654-.415-.898-1.014-.732-1.797.255-.313.543-.58.865-.798z" fill="#0C0C0C"/><path fill-rule="evenodd" clip-rule="evenodd" d="M87.21 92.952c.12.094.164.228.132.4-1 .043-1.977-.002-2.928-.134a7.497 7.497 0 002.795-.266z" fill="#434343"/><path d="M86.905 0H0v86.905h43.97l.517-4.139 4.138-5.173V60.005l8.277-2.069-1.035-7.242-6.207-2.069-3.104-8.276h17.588l-7.242-8.277-5.173-13.45 3.104-7.242 10.345-4.138 6.208 1.035 10.346 23.795h5.173V0z" fill="#E7AD03"/></svg>