<svg width="103" height="94" fill="none" xmlns="http://www.w3.org/2000/svg"><path d="M45.4 84.083h22.4v6.19H45.4c-3.552 0-6.4-2.754-6.4-6.19V34.56a6.09 6.09 0 011.874-4.378A6.511 6.511 0 0145.4 28.37h38.4c1.697 0 3.325.652 4.526 1.813A6.09 6.09 0 0190.2 34.56v26.433l-4.8-2.538-1.6.867V34.56h-16v24.76l-8-6.964-8 6.965V34.56h-6.4v49.523zm57.6-9.285l-17.6-9.286-17.6 9.286 17.6 9.285 17.6-9.285zm-28.8 6.469v6.19l11.2 5.912 11.2-5.912v-6.19l-11.2 5.912-11.2-5.912z" fill="#000"/><path d="M80.64 0H0v80.64h35.28V26.69l5.67-3.15h39.69V0z" fill="#E7AD03"/></svg>