<svg width="118" height="95" fill="none" xmlns="http://www.w3.org/2000/svg"><path d="M86.021 29.704l-17.86 17.878L63.11 63.65l3.29 6.797 3.831 1.718 6.226-10.194 2.12-.668 11.585 4.97 3.801-2.407.839-8.088 2.142 9.927-1.992 2.621.707.304.983 1.203 1.282 6.356 10.502-12.359 2.623.043 4.202 5.288-1.773-9.67-5.639-19.07-21.816-10.717zm-36.42 2.22l-5.54 9.643-.864 5.112 4.875-1.562 2.196 1.365.015.117 5.309 11.08 2.584-.84 2.053.864.736 1.52 3.661-11.646-.201-6.17-7.533-.096-5.579-4.402 6.39 2.016 7.973-1.43 4.884 2.939 6.808-6.814a63.17 63.17 0 00-1.61-.652l-14.931 1.874-.662-.046-10.564-2.872zm46.78 6.74l8.828 12.22.396 11.57-4.744-11.05-12.255-11.18 7.774-1.56zm-49.194 10.24l-12.052 3.863L32 67.307l9.53 1.032.112-1.321 7.066-6.794-1.521-11.32zm10.635 11.558l-6.836 2.224-5.938 5.708 4.238 5.713 10.756.322 3.096-2.99-5.316-10.977zm20.763 4.477l-8.312 13.613-.007 10.575 18.25 2.261 8.3-3.614L93.5 71.337 78.585 64.94zm31.09 2.607l-8.789 10.341.054.329 12.223 2.57L118 78.023l-8.325-10.478zm-25.963 2.94l7.36 4.228 2.516 9.376-5.032 4.412-8.445-.472 7.235-5.227.465-7.261-4.099-5.055zm-44.723 9.965l-1.645 5.277 2.467 8.976 17.08-2.204.248-4.89-11.741-5.922-6.409-1.237z" fill="#000"/><path fill-rule="evenodd" clip-rule="evenodd" d="M89.746 0H0v89.746h32.767l-.746-2.434 3.586-5.757L27 70.04l3.586-18.71c2.63-.72 7.89-2.303 7.89-2.88 0-.575.956-6.476 1.434-9.354l6.456-11.514L58.558 31.9l22.234-4.317 4.304-2.879 4.65 2.333V0z" fill="#E7AD03"/></svg>