<svg width="40" height="41" viewBox="0 0 40 41" fill="none" xmlns="http://www.w3.org/2000/svg">
<g id="Group 8">
<path id="Rectangle 36 (Stroke)" fill-rule="evenodd" clip-rule="evenodd" d="M33.75 4.42627H6.25C4.86929 4.42627 3.75 5.54556 3.75 6.92627V34.4263C3.75 35.807 4.86929 36.9263 6.25 36.9263H33.75C35.1307 36.9263 36.25 35.807 36.25 34.4263V6.92627C36.25 5.54556 35.1307 4.42627 33.75 4.42627ZM6.25 0.67627C2.79822 0.67627 0 3.47449 0 6.92627V34.4263C0 37.878 2.79822 40.6763 6.25 40.6763H33.75C37.2018 40.6763 40 37.878 40 34.4263V6.92627C40 3.47449 37.2018 0.67627 33.75 0.67627H6.25Z" fill="black"/>
<path id="Star 5" d="M19.9999 10.6104L22.4984 18.3H30.5838L24.0426 23.0524L26.5411 30.7421L19.9999 25.9896L13.4587 30.7421L15.9572 23.0524L9.41602 18.3H17.5014L19.9999 10.6104Z" fill="black"/>
</g>
</svg>
