<svg width="33" height="24" fill="none" xmlns="http://www.w3.org/2000/svg"><path d="M16.291.998h.18c1.664.006 10.092.066 12.364.67a4.078 4.078 0 011.816 1.042 4.01 4.01 0 011.048 1.798c.204.76.348 1.766.445 2.804l.02.208.044.52.017.208a63.91 63.91 0 01.15 3.914v.15a63.96 63.96 0 01-.166 4.12l-.017.21-.018.208c-.101 1.144-.25 2.28-.475 3.116-.184.68-.545 1.3-1.048 1.799a4.072 4.072 0 01-1.816 1.041c-2.347.624-11.269.668-12.505.67h-.287c-.626 0-3.212-.012-5.923-.104l-.344-.012-.176-.008-.346-.014-.346-.014c-2.247-.098-4.385-.256-5.37-.52a4.072 4.072 0 01-1.817-1.04 4.003 4.003 0 01-1.047-1.798c-.225-.834-.375-1.972-.476-3.116l-.016-.21-.016-.208A62.072 62.072 0 010 12.36v-.246c.004-.43.02-1.916.13-3.556l.014-.206.006-.104.016-.208.044-.52.02-.208c.098-1.038.241-2.046.446-2.804.183-.68.545-1.3 1.047-1.799A4.072 4.072 0 013.54 1.668c.986-.26 3.124-.42 5.37-.52l.345-.014.348-.012.174-.006.346-.014c1.925-.061 3.852-.095 5.779-.102h.39V.998zm-3.34 6.42v9.636l8.411-4.816-8.411-4.82z" fill="#fff"/></svg>